<?xml version="1.0" standalone="no"?>
<!DOCTYPE svg PUBLIC "-//W3C//DTD SVG 20010904//EN"
 "http://www.w3.org/TR/2001/REC-SVG-20010904/DTD/svg10.dtd">
<svg version="1.0" xmlns="http://www.w3.org/2000/svg"
 width="1024.000000pt" height="1024.000000pt" viewBox="0 0 1024.000000 1024.000000"
 preserveAspectRatio="xMidYMid meet">

<g transform="translate(0.000000,1024.000000) scale(0.100000,-0.100000)"
fill="#000000" stroke="none">
<path d="M3209 7693 l-24 -28 28 24 c25 23 32 31 24 31 -2 0 -14 -12 -28 -27z"/>
<path d="M4470 7675 c-301 -51 -562 -188 -790 -414 -63 -63 -110 -108 -103
-100 13 16 -23 61 -163 204 -53 55 -217 185 -233 185 -10 0 6 -211 24 -320 36
-220 130 -465 236 -621 66 -97 213 -244 304 -305 33 -23 94 -60 135 -82 l75
-41 13 -80 c40 -256 195 -473 422 -590 88 -45 183 -76 260 -84 51 -6 52 -5 14
4 l-41 9 13 63 c14 67 49 333 60 460 5 62 10 77 23 77 9 1 3 7 -14 14 -38 17
-90 72 -104 109 -15 39 -14 97 3 129 14 26 13 30 -12 60 -15 18 -29 35 -32 38
-15 13 -141 210 -150 236 -6 16 -17 36 -25 44 -7 8 -28 42 -46 75 -18 33 -41
71 -51 85 l-20 25 29 23 c47 39 147 91 221 116 104 36 191 46 389 47 113 0
170 3 156 9 -20 8 -22 16 -22 94 0 47 -5 114 -10 148 -6 35 -13 136 -16 225
-4 126 -3 162 7 166 29 12 -480 4 -552 -8z m529 -215 c1 -47 8 -143 16 -215
17 -149 18 -195 7 -195 -8 0 -35 175 -31 197 1 5 0 49 -1 98 -2 69 -4 83 -11
60 -5 -19 -7 3 -4 64 3 52 6 113 6 135 l2 41 7 -50 c5 -27 9 -88 9 -135z m-32
138 c-3 -8 -6 -5 -6 6 -1 11 2 17 5 13 3 -3 4 -12 1 -19z"/>
<path d="M4981 7474 c0 -11 3 -14 6 -6 3 7 2 16 -1 19 -3 4 -6 -2 -5 -13z"/>
<path d="M3172 7610 c0 -14 2 -19 5 -12 2 6 2 18 0 25 -3 6 -5 1 -5 -13z"/>
<path d="M5736 4794 c8 -3 6 -30 -7 -92 -11 -48 -26 -125 -34 -172 -9 -47 -20
-98 -25 -115 -5 -16 -16 -74 -23 -127 -12 -87 -12 -98 2 -101 9 -3 6 -5 -8 -6
l-24 -1 26 -20 c49 -39 69 -84 65 -148 -2 -31 -8 -64 -12 -73 -6 -14 5 -23 51
-44 32 -15 111 -63 176 -106 64 -44 120 -79 122 -79 5 0 120 -80 142 -100 7
-5 17 -10 23 -10 5 0 10 -2 10 -5 0 -10 -33 -59 -83 -122 -27 -35 -45 -63 -39
-63 5 0 47 -30 93 -66 81 -63 464 -442 455 -451 -4 -5 1 -10 110 -124 111
-116 311 -299 326 -299 4 0 8 -5 8 -11 0 -5 -6 -7 -12 -3 -7 4 -10 4 -6 -1 4
-4 2 -15 -4 -24 -14 -19 91 78 145 134 361 374 581 967 553 1489 -7 133 -29
313 -34 280 -2 -17 -26 -26 -165 -63 -295 -77 -424 -103 -431 -87 -2 6 -2 -41
1 -104 6 -129 -8 -277 -37 -390 -11 -41 -18 -63 -16 -47 l3 27 -75 0 c-71 0
-219 -37 -246 -61 -6 -5 -2 -18 9 -31 11 -13 -28 22 -85 78 -122 117 -178 163
-276 228 l-71 47 -6 127 c-3 92 -11 146 -27 197 -80 252 -263 442 -507 526
-49 16 -100 27 -67 13z"/>
<path d="M5037 3811 c88 -63 134 -160 134 -275 0 -81 -10 -120 -45 -181 -30
-50 -118 -133 -152 -141 -30 -8 -31 -24 -1 -24 38 0 124 -47 170 -92 153 -153
132 -403 -43 -521 l-49 -33 44 -22 c68 -33 122 -88 155 -157 75 -156 37 -322
-92 -409 l-53 -36 135 0 135 0 23 94 c12 51 22 106 22 120 0 45 -30 176 -60
266 -16 47 -28 97 -27 111 2 25 6 27 67 33 36 3 85 6 110 6 25 0 40 4 33 8 -8
5 -14 96 -19 323 l-7 316 -111 7 c-61 3 -137 6 -169 6 l-57 0 25 50 c50 99 67
212 44 309 -22 98 -91 201 -158 236 -17 8 -31 20 -31 25 0 6 -14 10 -32 10
l-31 0 40 -29z"/>
<path d="M2995 3161 l-70 -26 -5 -150 -6 -150 -2 149 c-2 137 -3 148 -19 141
-10 -4 -162 -60 -338 -126 -176 -66 -327 -122 -335 -125 -16 -6 105 -57 175
-74 22 -5 171 -59 330 -119 l290 -109 18 21 c41 49 97 131 97 143 0 8 -22 15
-56 20 -51 6 -55 8 -49 28 3 11 14 62 24 111 10 50 22 98 26 108 4 10 3 17 -5
17 -8 0 -11 25 -8 85 2 47 3 85 3 84 0 -1 -31 -13 -70 -28z"/>
</g>
</svg>
